<svg width="47" height="57" viewBox="0 0 47 57" fill="none" xmlns="http://www.w3.org/2000/svg">
<path fill-rule="evenodd" clip-rule="evenodd" d="M32.3703 0H6.18451C4.54414 0 2.97097 0.651825 1.81095 1.81053C0.651782 2.97087 0 4.54414 0 6.18409V50.7105C0 54.1254 2.76923 56.8946 6.18451 56.8946H40.8155C42.4559 56.8946 44.029 56.2428 45.189 55.0841C46.3482 53.9238 47 52.3505 47 50.7105V14.6293C47 13.6461 46.6091 12.7023 45.9125 12.0058L34.994 1.08729C34.2978 0.390741 33.354 0.000212015 32.3705 0.000212015L32.3703 0ZM44.526 16.0783V50.7103C44.526 51.6947 44.1355 52.6385 43.4389 53.3338C42.744 54.0299 41.8003 54.4209 40.8155 54.4209H6.18451C4.13502 54.4209 2.47397 52.7598 2.47397 50.7103V6.18388C2.47397 5.1995 2.86449 4.25567 3.56106 3.56042C4.25595 2.86428 5.19973 2.47334 6.18451 2.47334H30.9211C31.604 2.47334 32.1581 3.02744 32.1581 3.71033V8.65743C32.1581 10.2978 32.8099 11.871 33.9686 13.031C35.1289 14.1902 36.7022 14.8419 38.3421 14.8419H43.2897C43.6172 14.8419 43.9328 14.9716 44.1639 15.2043C44.3966 15.4354 44.5262 15.7509 44.5262 16.0785L44.526 16.0783ZM34.6314 4.22153V8.65679C34.6314 9.64158 35.0223 10.5853 35.7185 11.2802C36.4138 11.9768 37.3576 12.3673 38.3419 12.3673H42.7772L34.6314 4.22153Z" fill="#144147"/>
<path fill-rule="evenodd" clip-rule="evenodd" d="M11.1272 35.1611H35.8648C36.5473 35.1611 37.1014 34.607 37.1014 33.9241C37.1014 33.2416 36.5473 32.6875 35.8648 32.6875H11.1272C10.4447 32.6875 9.89062 33.2416 9.89062 33.9241C9.89062 34.607 10.4447 35.1611 11.1272 35.1611Z" fill="#144147"/>
<path fill-rule="evenodd" clip-rule="evenodd" d="M21.026 27.7314H35.8682C36.5507 27.7314 37.1048 27.1773 37.1048 26.4944C37.1048 25.8119 36.5507 25.2578 35.8682 25.2578H21.026C20.3432 25.2578 19.7891 25.8119 19.7891 26.4944C19.7891 27.1773 20.3432 27.7314 21.026 27.7314Z" fill="#144147"/>
<path fill-rule="evenodd" clip-rule="evenodd" d="M11.1272 42.5829H35.8648C36.5473 42.5829 37.1014 42.0288 37.1014 41.3459C37.1014 40.6635 36.5473 40.1094 35.8648 40.1094H11.1272C10.4447 40.1094 9.89062 40.6635 9.89062 41.3459C9.89062 42.0288 10.4447 42.5829 11.1272 42.5829Z" fill="#144147"/>
<path fill-rule="evenodd" clip-rule="evenodd" d="M11.1272 27.7314H16.0747C16.7576 27.7314 17.3117 27.1773 17.3117 26.4944C17.3117 25.8119 16.7576 25.2578 16.0747 25.2578H11.1272C10.4447 25.2578 9.89062 25.8119 9.89062 26.4944C9.89062 27.1773 10.4447 27.7314 11.1272 27.7314Z" fill="#144147"/>
</svg>
