<svg width="3515" height="1518" viewBox="0 0 3515 1518" fill="none" xmlns="http://www.w3.org/2000/svg">
<path d="M130.581 1269.97H195.642V1418.84C196.997 1438.74 192.557 1458.6 182.813 1476.24C173.95 1489.66 161.493 1500.58 146.727 1507.88C131.961 1515.18 115.421 1518.59 98.814 1517.75C79.8737 1518.34 61.1095 1514.12 44.4435 1505.52C13.8981 1488.77 0 1466.04 0 1419.13V1269.97H65.0612V1418.11C65.0612 1448.41 74.9886 1463.13 98.2029 1463.13C121.417 1463.13 130.581 1452.64 130.581 1418.4V1269.97Z" fill="white"/>
<path d="M399.673 1513.09L301.775 1364.65L303.456 1513.09H241.143V1269.97H297.345L396.464 1423.79L393.717 1269.97H456.18V1513.09H399.673Z" fill="white"/>
<path d="M567.688 1269.97H502.625V1513.09H567.688V1269.97Z" fill="white"/>
<path d="M681.44 1513.09L596.373 1269.97H663.114L714.43 1440.55H715.194L766.815 1269.97H834.015L748.641 1513.09H681.44Z" fill="white"/>
<path d="M862.588 1513.09V1269.97H1004.17V1324.45H924.901V1362.32H1001.72V1416.8H924.901V1458.61H1004.17V1513.09H862.588Z" fill="white"/>
<path d="M1166.51 1513.08L1107.56 1434.57H1106.8V1513.08H1044.48V1269.96H1127.87C1148.66 1268.99 1169.43 1272.01 1188.96 1278.84C1203.49 1285.71 1215.62 1296.42 1223.91 1309.71C1232.2 1322.99 1236.29 1338.27 1235.7 1353.72C1236.75 1371.66 1230.88 1389.36 1219.21 1403.47C1207.53 1417.58 1190.86 1427.14 1172.32 1430.34L1241.66 1513.08H1166.51ZM1130.93 1392.17C1156.74 1392.17 1172.62 1380.67 1172.62 1357.36C1172.62 1336.24 1156.13 1324.44 1131.69 1324.44H1106.8V1392.17H1130.93Z" fill="white"/>
<path d="M1369.34 1340.9C1366.59 1323.42 1358.96 1317.3 1346.28 1317.3C1340.67 1316.98 1335.16 1318.79 1330.95 1322.34C1326.75 1325.89 1324.18 1330.89 1323.83 1336.24C1323.83 1350.8 1337.73 1357.36 1365.52 1368.87C1421.73 1391.88 1435.78 1411.26 1435.78 1443.01C1435.78 1490.07 1402.02 1517.74 1347.05 1517.74C1292.06 1517.74 1255.41 1490.06 1255.41 1437.77V1432.52H1320.16C1320.16 1452.63 1330.86 1465.74 1347.05 1465.74C1350.26 1465.76 1353.45 1465.17 1356.42 1464C1359.39 1462.84 1362.1 1461.12 1364.37 1458.96C1366.64 1456.78 1368.44 1454.21 1369.66 1451.37C1370.88 1448.54 1371.5 1445.5 1371.48 1442.43C1371.48 1423.06 1343.23 1414.46 1320.16 1405.57C1278.47 1389.55 1259.07 1368.43 1259.07 1336.96C1259.07 1295.59 1301.07 1265.29 1347.96 1265.29C1363.88 1265.07 1379.61 1268.57 1393.78 1275.49C1406.73 1281.15 1417.55 1290.45 1424.81 1302.13C1432.07 1313.82 1435.42 1327.35 1434.41 1340.9H1369.34Z" fill="white"/>
<path d="M1532.01 1269.97H1466.95V1513.09H1532.01V1269.97Z" fill="white"/>
<path d="M1608.84 1513.09V1324.45H1558.6V1269.97H1724V1324.45H1673.9V1513.09H1608.84Z" fill="white"/>
<path d="M1811.32 1513.09V1424.81L1735.26 1269.97H1805.82L1843.7 1367.57L1882.03 1269.97H1951.98L1876.54 1424.81V1513.09H1811.32Z" fill="white"/>
<path d="M627.247 1047.22C622.777 1047.18 618.505 1045.46 615.358 1042.43C612.211 1039.41 610.446 1035.31 610.446 1031.05V943.649H607.697C574.555 1008.04 483.684 1047.51 383.037 1047.51C157.003 1047.51 0 877.95 0 657.113C0 441.518 163.875 268.024 383.037 268.024C476.812 268.024 563.56 303.568 607.697 369.993H610.446V283.465C610.446 279.216 612.217 275.138 615.367 272.134C618.517 269.13 622.791 267.441 627.247 267.441H822.278C826.733 267.441 831.008 269.13 834.158 272.134C837.308 275.138 839.079 279.216 839.079 283.465V1030.76C839.079 1035.02 837.313 1039.11 834.166 1042.14C831.019 1045.17 826.747 1046.89 822.278 1046.93L627.247 1047.22ZM610.446 656.823C610.466 632.482 605.455 608.38 595.701 585.889C585.944 563.401 571.636 542.966 553.592 525.755C535.547 508.546 514.125 494.897 490.545 485.593C466.968 476.287 441.696 471.508 416.179 471.526C311.41 471.526 228.784 554.267 228.784 659.442C228.964 683.356 234.081 707 243.842 729.026C253.603 751.054 267.816 771.029 285.67 787.815C303.525 804.604 324.674 817.872 347.905 826.863C371.135 835.855 395.995 840.395 421.066 840.223C446.138 840.05 470.927 835.169 494.019 825.86C517.111 816.549 538.057 802.993 555.656 785.962C573.255 768.932 587.165 748.762 596.592 726.605C606.022 704.445 610.779 680.733 610.598 656.823" fill="white"/>
<path d="M1012.7 1031.06V172.476C1012.72 170.128 1013.26 167.81 1014.29 165.676C1015.31 163.541 1016.8 161.639 1018.66 160.094L1213.84 3.49686C1216.29 1.52514 1219.27 0.26138 1222.45 -0.145387C1225.62 -0.552153 1228.85 -0.0849957 1231.76 1.20095C1234.66 2.48689 1237.12 4.53814 1238.84 7.11286C1240.57 9.68759 1241.48 12.6785 1241.48 15.7332V1030.77C1241.48 1035.04 1239.72 1039.13 1236.57 1042.16C1233.43 1045.18 1229.15 1046.91 1224.69 1046.94H1029.5C1025.03 1046.91 1020.76 1045.18 1017.61 1042.16C1014.47 1039.13 1012.7 1035.04 1012.7 1030.77" fill="white"/>
<path d="M2138.31 725.145C2135.74 725.158 2133.21 725.731 2130.91 726.815C2128.6 727.899 2126.59 729.47 2125.02 731.406C2123.44 733.343 2122.35 735.594 2121.82 737.991C2121.29 740.39 2121.35 742.87 2121.97 745.247C2142.44 816.772 2211.01 863.096 2296.84 863.096C2322.89 864.018 2348.77 858.814 2372.21 847.94C2395.65 837.068 2415.92 820.861 2431.24 800.748C2432.79 798.881 2434.76 797.372 2437.01 796.337C2439.26 795.304 2441.73 794.769 2444.22 794.777H2643.84C2646.72 794.736 2649.56 795.406 2652.09 796.718C2654.62 798.031 2656.76 799.941 2658.29 802.267C2659.82 804.594 2660.71 807.256 2660.85 810C2660.99 812.743 2660.39 815.479 2659.11 817.937C2583.51 962.881 2450.18 1047.22 2297 1047.22C2243.79 1047.24 2191.1 1037.26 2141.94 1017.84C2092.78 998.427 2048.11 969.957 2010.5 934.064C1972.88 898.171 1943.05 855.559 1922.71 808.663C1902.37 761.767 1891.92 711.509 1891.96 660.758C1891.96 450.408 2068.21 269.047 2292.87 269.047C2521.96 269.047 2696.68 441.231 2696.68 667.313C2696.77 681.931 2695.75 696.538 2693.62 711.014C2693.07 714.849 2691.08 718.364 2688.02 720.909C2684.96 723.453 2681.04 724.854 2676.98 724.852L2138.31 725.145ZM2445.14 578.015C2447.8 577.942 2450.41 577.264 2452.75 576.038C2455.08 574.814 2457.08 573.076 2458.57 570.97C2460.06 568.864 2461.01 566.449 2461.33 563.926C2461.65 561.401 2461.33 558.843 2460.41 556.457C2435.52 493.671 2371.68 453.03 2292.41 453.03C2256.97 451.928 2222.04 461.339 2192.45 479.967C2162.85 498.595 2140.04 525.524 2127.16 557.038C2126.25 559.432 2125.94 562.001 2126.26 564.529C2126.58 567.06 2127.52 569.48 2129.01 571.597C2130.5 573.714 2132.49 575.465 2134.82 576.705C2137.16 577.947 2139.77 578.647 2142.44 578.743L2445.14 578.015Z" fill="white"/>
<path fill-rule="evenodd" clip-rule="evenodd" d="M3146.3 3.49257L2802.68 278.959C2801 280.325 2799.65 282.022 2798.73 283.935C2797.81 285.844 2797.33 287.926 2797.33 290.029C2797.33 292.133 2797.81 294.212 2798.73 296.124C2799.65 298.034 2801 299.733 2802.68 301.1L2916.62 392.291C2919.35 394.432 2922.77 395.605 2926.32 395.605C2929.84 395.605 2933.28 394.432 2936.02 392.291L3146.3 223.748C3149.06 221.568 3152.5 220.374 3156.08 220.374C3159.66 220.374 3163.1 221.568 3165.87 223.748L3376.17 392.291C3378.91 394.47 3382.38 395.664 3385.93 395.664C3389.51 395.664 3392.98 394.47 3395.72 392.291L3509.5 301.1C3511.16 299.733 3512.51 298.034 3513.45 296.124C3514.35 294.212 3514.83 292.133 3514.83 290.029C3514.83 287.926 3514.35 285.844 3513.45 283.935C3512.51 282.022 3511.16 280.325 3509.5 278.959L3165.87 3.49257C3163.1 1.31236 3159.66 0.118408 3156.08 0.118408C3152.5 0.118408 3149.06 1.31236 3146.3 3.49257Z" fill="white"/>
<path fill-rule="evenodd" clip-rule="evenodd" d="M3298.75 578.03H3013.44C3010.34 578 3007.32 577.067 3004.78 575.354C3002.24 573.641 3000.3 571.228 2999.26 568.441C2998.18 565.655 2998.04 562.624 2998.83 559.757C2999.62 556.887 3001.31 554.318 3003.68 552.39L3005.21 551.225L3017.87 541.029L3063.69 504.173L3076.38 493.831L3109.68 467.172L3146.03 438.038C3148.77 435.859 3152.21 434.665 3155.79 434.665C3159.37 434.665 3162.81 435.859 3165.57 438.038L3201.92 467.172L3235.22 493.831L3247.88 504.173L3293.71 541.029L3306.37 551.225L3307.75 552.39C3310.12 554.318 3311.81 556.887 3312.6 559.757C3313.39 562.624 3313.25 565.655 3312.18 568.441C3311.11 571.228 3309.19 573.641 3306.65 575.354C3304.11 577.067 3301.09 578 3297.99 578.03" fill="white"/>
<path d="M1731.63 881.608H1774.7C1779.17 881.605 1783.46 883.289 1786.63 886.29C1789.81 889.292 1791.61 893.367 1791.65 897.63V1031.06C1791.61 1035.33 1789.81 1039.41 1786.63 1042.4C1783.46 1045.41 1779.17 1047.09 1774.7 1047.09H1624.26C1578.91 1046.56 1535.56 1029.14 1503.49 998.547C1471.42 967.955 1453.15 926.616 1452.6 883.353V432.793H1356.23C1351.76 432.793 1347.47 431.109 1344.29 428.108C1341.12 425.106 1339.31 421.031 1339.28 416.768V283.333C1339.28 279.043 1341.06 274.931 1344.24 271.9C1347.42 268.866 1351.73 267.163 1356.23 267.163H1452.29V172.476C1452.3 170.112 1452.85 167.778 1453.91 165.638C1454.96 163.499 1456.5 161.606 1458.4 160.094L1653.43 3.49686C1655.88 1.52514 1658.87 0.26138 1662.04 -0.145387C1665.21 -0.552153 1668.44 -0.0849957 1671.35 1.20095C1674.25 2.48689 1676.71 4.53814 1678.44 7.11286C1680.16 9.68759 1681.08 12.6785 1681.08 15.7332V267.163H1774.7C1779.19 267.163 1783.51 268.866 1786.68 271.9C1789.86 274.931 1791.65 279.043 1791.65 283.333V416.768C1791.61 421.031 1789.81 425.106 1786.63 428.108C1783.46 431.109 1779.17 432.793 1774.7 432.793H1681.38V833.826C1681.38 846.613 1686.71 858.878 1696.19 867.92C1705.67 876.963 1718.53 882.043 1731.93 882.043" fill="white"/>
</svg>
