<svg width="17" height="30" viewBox="0 0 17 30" fill="none" xmlns="http://www.w3.org/2000/svg">
<path fillRule="evenodd" clipRule="evenodd" d="M0.140895 15.409L11.6436 29.7765C11.7006 29.8466 11.7715 29.9028 11.8513 29.9414C11.9311 29.9801 12.018 30 12.1058 30C12.1937 30 12.2805 29.9801 12.3603 29.9414C12.4401 29.9028 12.5111 29.8466 12.5681 29.7765L16.376 25.0123C16.4654 24.8979 16.5144 24.7552 16.5144 24.6067C16.5144 24.4593 16.4654 24.3155 16.376 24.2011L9.33813 15.409C9.24709 15.2934 9.19725 15.1496 9.19725 14.9998C9.19725 14.8501 9.24709 14.7062 9.33813 14.5907L16.376 5.79737C16.467 5.683 16.5169 5.53798 16.5169 5.38942C16.5169 5.23968 16.467 5.09466 16.376 4.98029L12.5681 0.222833C12.5111 0.153268 12.4401 0.0966753 12.3603 0.0577673C12.2805 0.0200362 12.1937 -2.44035e-06 12.1058 -2.43651e-06C12.018 -2.43267e-06 11.9311 0.0200362 11.8513 0.0577674C11.7715 0.0966754 11.7006 0.153268 11.6436 0.222833L0.140895 14.5907C0.0498553 14.7062 -6.62224e-07 14.8501 -6.55679e-07 14.9998C-6.49133e-07 15.1496 0.0498553 15.2934 0.140895 15.409Z" fill="#EB5E51"/>
</svg>
