<svg width="47" height="42" viewBox="0 0 47 42" fill="none" xmlns="http://www.w3.org/2000/svg">
<g filter="url(#filter0_d_1087_4762)">
<rect x="4" width="39" height="34" rx="5" fill="#0A66C2"/>
<path d="M16.4196 14.7346H17.2594V24.2313H16.4196V14.7346ZM16.8396 8.61716C17.1676 8.61716 17.5491 8.91784 17.5491 9.43089C17.5491 9.94218 17.1681 10.2434 16.8396 10.2434C16.5095 10.2434 16.1301 9.94339 16.1301 9.43089C16.1301 8.91663 16.51 8.61716 16.8396 8.61716Z" fill="white" stroke="white" strokeWidth="2.81"/>
<path d="M30.9261 18.8869V24.2316H30.0891V19.6518C30.0891 19.6329 30.0891 19.6137 30.0891 19.5942C30.0894 18.9364 30.0899 17.8844 29.7531 16.9898C29.5655 16.4916 29.2474 15.9618 28.7042 15.5641C28.1531 15.1606 27.4939 14.9836 26.7881 14.9836C26.612 14.9836 26.4385 14.9932 26.2685 15.0132C26.6536 14.6886 27.2152 14.4301 27.9544 14.4301C29.427 14.4301 30.0016 14.9011 30.3243 15.4376C30.7432 16.134 30.9261 17.2565 30.9261 18.8869ZM23.0474 16.4178H23.9127C23.8489 16.5144 23.7908 16.6133 23.7381 16.7137C23.2564 17.6304 23.1947 18.7246 23.1947 19.5493V24.2316H22.3576V14.7349H23.0474V15.0128V16.4178Z" fill="white" stroke="white" strokeWidth="2.81"/>
</g>
<defs>
<filter id="filter0_d_1087_4762" x="0" y="0" width="47" height="42" filterUnits="userSpaceOnUse" color-interpolation-filters="sRGB">
<feFlood flood-opacity="0" result="BackgroundImageFix"/>
<feColorMatrix in="SourceAlpha" type="matrix" values="0 0 0 0 0 0 0 0 0 0 0 0 0 0 0 0 0 0 127 0" result="hardAlpha"/>
<feOffset dy="4"/>
<feGaussianBlur stdDeviation="2"/>
<feComposite in2="hardAlpha" operator="out"/>
<feColorMatrix type="matrix" values="0 0 0 0 0 0 0 0 0 0 0 0 0 0 0 0 0 0 0.25 0"/>
<feBlend mode="normal" in2="BackgroundImageFix" result="effect1_dropShadow_1087_4762"/>
<feBlend mode="normal" in="SourceGraphic" in2="effect1_dropShadow_1087_4762" result="shape"/>
</filter>
</defs>
</svg>
