<svg width="33" height="16" viewBox="0 0 33 16" fill="none" xmlns="http://www.w3.org/2000/svg">
<path fill-rule="evenodd" clip-rule="evenodd" d="M1.50421 1.07573e-07L31.416 2.72254e-06C31.7412 0.00330437 32.0575 0.10746 32.3236 0.298669C32.5896 0.489878 32.7936 0.75913 32.903 1.07011C33.0153 1.38108 33.0301 1.71938 32.9473 2.03936C32.8645 2.35964 32.6872 2.6463 32.4389 2.86153L32.2792 2.9915L30.9518 4.12945L26.1478 8.24268L24.8175 9.39684L21.3261 12.3721L17.5155 15.6236C17.2287 15.8667 16.8681 16 16.4926 16C16.1172 16 15.7565 15.8667 15.4668 15.6236L11.6561 12.3721L8.16475 9.39684L6.83736 8.24268L2.03339 4.12945L0.706021 2.9915L0.561151 2.86152C0.312822 2.6463 0.135453 2.35964 0.0526784 2.03936C-0.0300967 1.71938 -0.0153185 1.38108 0.0970205 1.0701C0.20936 0.759128 0.410386 0.489875 0.67645 0.298666C0.942518 0.107457 1.25884 0.00330171 1.58403 1.14552e-07" fill="#144147"/>
</svg>
