<svg width="139" height="61" viewBox="0 0 139 61" fill="none" xmlns="http://www.w3.org/2000/svg">
<mask id="mask0_48_78" style="mask-type:luminance" maskUnits="userSpaceOnUse" x="0" y="0" width="139" height="61">
<path d="M139 0H0V60.0193H139V0Z" fill="white"/>
</mask>
<g mask="url(#mask0_48_78)">
<path d="M5.1638 50.2205H7.73663V56.1077C7.7902 56.8944 7.61463 57.68 7.22931 58.3774C6.87883 58.9081 6.38622 59.3401 5.8023 59.6287C5.21839 59.9172 4.56432 60.0521 3.90758 60.0191C3.15859 60.0424 2.41656 59.8754 1.75751 59.5352C0.549599 58.8728 0 57.9741 0 56.1192V50.2205H2.57283V56.0789C2.57283 57.2771 2.96541 57.859 3.88342 57.859C4.80142 57.859 5.1638 57.4441 5.1638 56.0904V50.2205Z" fill="#F26659"/>
<path d="M15.8052 59.8348L11.9338 53.9648L12.0003 59.8348H9.53613V50.2205H11.7587L15.6783 56.3035L15.5697 50.2205H18.0398V59.8348H15.8052Z" fill="#F26659"/>
<path d="M22.4489 50.2205H19.876V59.8348H22.4489V50.2205Z" fill="#F26659"/>
<path d="M26.9479 59.8348L23.584 50.2205H26.2232L28.2525 56.9661H28.2827L30.3241 50.2205H32.9815L29.6054 59.8348H26.9479Z" fill="#F26659"/>
<path d="M34.1113 59.8348V50.2205H39.71V52.3749H36.5755V53.8726H39.6134V56.0271H36.5755V57.6804H39.71V59.8348H34.1113Z" fill="#F26659"/>
<path d="M46.1303 59.835L43.7991 56.73H43.7689V59.835H41.3047V50.2206H44.6023C45.4241 50.1823 46.2456 50.3018 47.0181 50.5719C47.5924 50.8433 48.0722 51.2671 48.4 51.7924C48.7279 52.3176 48.8898 52.9221 48.8662 53.5329C48.9076 54.2425 48.6757 54.9423 48.2142 55.5002C47.7525 56.0583 47.093 56.4362 46.3598 56.563L49.1018 59.835H46.1303ZM44.7231 55.0536C45.7437 55.0536 46.3719 54.5986 46.3719 53.6769C46.3719 52.8417 45.7196 52.375 44.7533 52.375H43.7689V55.0536H44.7231Z" fill="#F26659"/>
<path d="M54.15 53.026C54.0413 52.3348 53.7393 52.0928 53.2381 52.0928C53.0163 52.0801 52.7984 52.1519 52.6319 52.2922C52.4655 52.4326 52.3643 52.6302 52.3502 52.8417C52.3502 53.4177 52.8999 53.6769 53.999 54.132C56.2216 55.0422 56.7772 55.8084 56.7772 57.0642C56.7772 58.9249 55.4425 60.0193 53.2683 60.0193C51.0941 60.0193 49.6445 58.9248 49.6445 56.8568V56.6494H52.2053C52.2053 57.4443 52.6281 57.9628 53.2683 57.9628C53.3954 57.9636 53.5214 57.9403 53.639 57.8942C53.7566 57.8482 53.8635 57.7803 53.9533 57.6946C54.0432 57.6088 54.1144 57.5069 54.1626 57.3948C54.2109 57.2825 54.2355 57.1624 54.2346 57.0411C54.2346 56.275 53.1173 55.9351 52.2053 55.5837C50.5565 54.9501 49.7895 54.1147 49.7895 52.8705C49.7895 51.2345 51.4503 50.0363 53.3046 50.0363C53.9339 50.0273 54.556 50.1657 55.1164 50.4395C55.6283 50.6633 56.0565 51.031 56.3437 51.4931C56.6307 51.9554 56.7631 52.4902 56.7229 53.026H54.15Z" fill="#F26659"/>
<path d="M60.5826 50.2205H58.0098V59.8348H60.5826V50.2205Z" fill="#F26659"/>
<path d="M63.6208 59.8348V52.3749H61.6338V50.2205H68.1746V52.3749H66.1936V59.8348H63.6208Z" fill="#F26659"/>
<path d="M71.6288 59.8348V56.3438L68.6211 50.2205H71.4113L72.9092 54.08L74.425 50.2205H77.1912L74.2077 56.3438V59.8348H71.6288Z" fill="#F26659"/>
<path d="M24.8044 41.4127C24.6276 41.4112 24.4587 41.3431 24.3342 41.2234C24.2098 41.1036 24.14 40.9418 24.14 40.7732V37.3169H24.0313C22.7207 39.8631 19.1272 41.4242 15.1471 41.4242C6.20864 41.4242 0 34.7189 0 25.9859C0 17.4603 6.48041 10.5995 15.1471 10.5995C18.8555 10.5995 22.2859 12.005 24.0313 14.6318H24.14V11.2101C24.14 11.0421 24.21 10.8808 24.3346 10.762C24.4591 10.6432 24.6282 10.5764 24.8044 10.5764H32.5168C32.693 10.5764 32.8621 10.6432 32.9866 10.762C33.1112 10.8808 33.1812 11.0421 33.1812 11.2101V40.7618C33.1812 40.9303 33.1114 41.0921 32.9869 41.2119C32.8625 41.3316 32.6936 41.3996 32.5168 41.4012L24.8044 41.4127ZM24.14 25.9744C24.1408 25.0119 23.9426 24.0588 23.5569 23.1694C23.1711 22.2801 22.6052 21.472 21.8917 20.7914C21.1781 20.1109 20.331 19.5711 19.3985 19.2032C18.4662 18.8352 17.4668 18.6462 16.4577 18.6469C12.3146 18.6469 9.04722 21.9189 9.04722 26.078C9.05435 27.0237 9.25669 27.9587 9.64268 28.8297C10.0287 29.7008 10.5907 30.4907 11.2968 31.1545C12.0029 31.8184 12.8392 32.3431 13.7578 32.6987C14.6765 33.0542 15.6595 33.2338 16.651 33.227C17.6424 33.2201 18.6227 33.0271 19.5359 32.659C20.4491 32.2908 21.2774 31.7547 21.9733 31.0812C22.6693 30.4078 23.2193 29.6102 23.5921 28.734C23.965 27.8577 24.1531 26.92 24.146 25.9744" fill="#074045"/>
<path d="M40.0479 40.7734V6.8207C40.0485 6.72784 40.0699 6.63618 40.1105 6.55177C40.1511 6.46737 40.21 6.39214 40.2834 6.33105L48.0018 0.138444C48.0986 0.0604734 48.2167 0.0104981 48.3422 -0.00558746C48.4677 -0.0216729 48.5954 -0.0031993 48.7104 0.0476531C48.8252 0.0985055 48.9225 0.179622 48.9906 0.281439C49.0587 0.383256 49.095 0.50153 49.095 0.622329V40.7619C49.095 40.9305 49.0252 41.0923 48.9008 41.212C48.7764 41.3318 48.6075 41.3999 48.4307 41.4014H40.7121C40.5354 41.3999 40.3664 41.3318 40.242 41.212C40.1177 41.0923 40.0479 40.9305 40.0479 40.7619" fill="#074045"/>
<path d="M84.5592 28.676C84.4577 28.6765 84.3575 28.6991 84.2664 28.742C84.1753 28.7849 84.0957 28.847 84.0335 28.9236C83.9712 29.0001 83.928 29.0892 83.9071 29.1839C83.8863 29.2788 83.8883 29.3769 83.9129 29.4709C84.7223 32.2993 87.434 34.1312 90.8283 34.1312C91.8582 34.1677 92.8818 33.9619 93.8087 33.5319C94.7355 33.1019 95.5372 32.461 96.143 31.6657C96.2043 31.5918 96.2823 31.5322 96.3712 31.4912C96.4602 31.4504 96.5576 31.4292 96.6564 31.4295H104.55C104.664 31.4279 104.776 31.4544 104.876 31.5063C104.977 31.5582 105.061 31.6337 105.122 31.7257C105.182 31.8177 105.217 31.923 105.223 32.0315C105.228 32.14 105.205 32.2482 105.154 32.3454C102.164 38.0772 96.892 41.4125 90.8343 41.4125C88.7302 41.4133 86.6466 41.0185 84.7025 40.2507C82.7586 39.4828 80.9923 38.357 79.5048 36.9376C78.0172 35.5182 76.8376 33.8332 76.0333 31.9787C75.229 30.1242 74.8158 28.1367 74.8174 26.1298C74.8174 17.8115 81.7871 10.6396 90.6712 10.6396C99.7305 10.6396 106.64 17.4486 106.64 26.389C106.644 26.9671 106.603 27.5447 106.519 28.1171C106.497 28.2688 106.418 28.4078 106.297 28.5084C106.176 28.6091 106.021 28.6645 105.861 28.6644L84.5592 28.676ZM96.6927 22.8577C96.7979 22.8548 96.9011 22.828 96.9934 22.7795C97.0858 22.7311 97.1647 22.6624 97.2237 22.5792C97.2827 22.4959 97.32 22.4004 97.3328 22.3006C97.3455 22.2007 97.3331 22.0996 97.2966 22.0052C96.3121 19.5224 93.7876 17.9152 90.6531 17.9152C89.2515 17.8716 87.8703 18.2438 86.6999 18.9804C85.5295 19.7171 84.6275 20.782 84.1183 22.0282C84.0821 22.1229 84.0698 22.2244 84.0825 22.3244C84.0951 22.4245 84.1325 22.5202 84.1914 22.6039C84.2502 22.6876 84.3291 22.7569 84.4213 22.8059C84.5135 22.8551 84.6167 22.8827 84.7223 22.8865L96.6927 22.8577Z" fill="#074045"/>
<path fillRule="evenodd" clipRule="evenodd" d="M124.42 0.138069L110.832 11.0313C110.765 11.0854 110.712 11.1525 110.676 11.2281C110.639 11.3036 110.62 11.3859 110.62 11.4691C110.62 11.5523 110.639 11.6345 110.676 11.7101C110.712 11.7856 110.765 11.8529 110.832 11.9069L115.337 15.513C115.446 15.5977 115.58 15.6441 115.721 15.6441C115.86 15.6441 115.996 15.5977 116.105 15.513L124.42 8.84803C124.529 8.76181 124.665 8.71461 124.807 8.71461C124.949 8.71461 125.085 8.76181 125.194 8.84803L133.51 15.513C133.619 15.5992 133.756 15.6464 133.896 15.6464C134.038 15.6464 134.175 15.5992 134.283 15.513L138.783 11.9069C138.848 11.8529 138.902 11.7856 138.939 11.7101C138.974 11.6345 138.993 11.5523 138.993 11.4691C138.993 11.3859 138.974 11.3036 138.939 11.2281C138.902 11.1525 138.848 11.0854 138.783 11.0313L125.194 0.138069C125.085 0.0518532 124.949 0.00463867 124.807 0.00463867C124.665 0.00463867 124.529 0.0518532 124.42 0.138069Z" fill="#F26659"/>
<path fillRule="evenodd" clipRule="evenodd" d="M130.449 22.8581H119.166C119.043 22.8569 118.924 22.82 118.824 22.7522C118.723 22.6845 118.646 22.5891 118.605 22.4789C118.563 22.3687 118.557 22.2488 118.588 22.1354C118.619 22.022 118.686 21.9204 118.78 21.8441L118.84 21.7981L119.341 21.3949L121.153 19.9374L121.655 19.5284L122.972 18.4742L124.409 17.3221C124.517 17.2359 124.653 17.1887 124.795 17.1887C124.937 17.1887 125.073 17.2359 125.182 17.3221L126.619 18.4742L127.936 19.5284L128.437 19.9374L130.249 21.3949L130.75 21.7981L130.804 21.8441C130.898 21.9204 130.965 22.022 130.996 22.1354C131.027 22.2488 131.022 22.3687 130.979 22.4789C130.937 22.5891 130.861 22.6845 130.761 22.7522C130.66 22.82 130.541 22.8569 130.418 22.8581" fill="#074045"/>
<path d="M68.4765 34.8632H70.1796C70.3564 34.8631 70.526 34.9296 70.6515 35.0483C70.7771 35.167 70.8484 35.3282 70.85 35.4967V40.7734C70.8484 40.942 70.7771 41.1032 70.6515 41.2218C70.526 41.3405 70.3564 41.4071 70.1796 41.4071H64.2307C62.4371 41.3862 60.7231 40.6974 59.4548 39.4875C58.1865 38.2778 57.4642 36.643 57.4422 34.9322V17.1149H53.6313C53.4546 17.1149 53.285 17.0483 53.1594 16.9296C53.0339 16.8109 52.9625 16.6498 52.9609 16.4812V11.2045C52.9609 11.0349 53.0316 10.8723 53.1573 10.7524C53.283 10.6324 53.4536 10.5651 53.6313 10.5651H57.4302V6.8207C57.4305 6.7272 57.4523 6.6349 57.494 6.5503C57.5357 6.46569 57.5965 6.39086 57.6717 6.33105L65.3842 0.138444C65.481 0.0604734 65.5991 0.0104981 65.7246 -0.00558746C65.8501 -0.0216729 65.9779 -0.0031993 66.0927 0.0476531C66.2076 0.0985055 66.3048 0.179622 66.373 0.281439C66.4412 0.383256 66.4773 0.50153 66.4775 0.62233V10.5651H70.1796C70.3574 10.5651 70.528 10.6324 70.6537 10.7524C70.7793 10.8723 70.85 11.0349 70.85 11.2045V16.4812C70.8484 16.6498 70.7771 16.8109 70.6515 16.9296C70.526 17.0483 70.3564 17.1149 70.1796 17.1149H66.4895V32.9737C66.4895 33.4793 66.7001 33.9643 67.075 34.3219C67.4499 34.6795 67.9584 34.8804 68.4886 34.8804" fill="#074045"/>
</g>
</svg>
