<svg width="61" height="64" viewBox="0 0 61 64" fill="none" xmlns="http://www.w3.org/2000/svg">
<path fill-rule="evenodd" clip-rule="evenodd" d="M19.9231 0.366807L-17.9113 30.3129C-18.0961 30.4614 -18.2442 30.6459 -18.3457 30.8538C-18.4475 31.0614 -18.5 31.2877 -18.5 31.5164C-18.5 31.745 -18.4475 31.971 -18.3457 32.1789C-18.2442 32.3865 -18.0961 32.5713 -17.9113 32.7198L-5.36567 42.6333C-5.0645 42.8661 -4.68882 42.9936 -4.29761 42.9936C-3.9095 42.9936 -3.53071 42.8661 -3.22954 42.6333L19.9231 24.3109C20.2274 24.0739 20.6062 23.9441 21.0005 23.9441C21.3948 23.9441 21.7736 24.0739 22.0778 24.3109L45.2336 42.6333C45.5348 42.8702 45.9167 43 46.3079 43C46.7022 43 47.0841 42.8702 47.3852 42.6333L59.9132 32.7198C60.0964 32.5713 60.2454 32.3865 60.3479 32.1789C60.4472 31.971 60.5 31.745 60.5 31.5164C60.5 31.2877 60.4472 31.0614 60.3479 30.8538C60.2454 30.6459 60.0964 30.4614 59.9132 30.3129L22.0778 0.366807C21.7736 0.129795 21.3948 0 21.0005 0C20.6062 0 20.2274 0.129795 19.9231 0.366807Z" fill="#EB5E51"/>
<path fill-rule="evenodd" clip-rule="evenodd" d="M40.54 64H1.56404C1.1403 63.9957 0.728127 63.859 0.381434 63.608C0.0347419 63.357 -0.231052 63.0036 -0.373581 62.5955C-0.519963 62.1873 -0.539221 61.7433 -0.431361 61.3233C-0.323501 60.903 -0.0923842 60.5267 0.231195 60.2442L0.439214 60.0737L2.16884 58.5801L8.42857 53.1815L10.162 51.6666L14.7114 47.7616L19.6768 43.494C20.0505 43.1749 20.5204 43 21.0096 43C21.4989 43 21.9688 43.1749 22.3463 43.494L27.3117 47.7616L31.8611 51.6666L33.5907 53.1815L39.8504 58.5801L41.58 60.0737L41.7688 60.2442C42.0924 60.5267 42.3235 60.903 42.4314 61.3233C42.5392 61.7433 42.52 62.1873 42.3736 62.5955C42.2272 63.0036 41.9653 63.357 41.6186 63.608C41.2719 63.859 40.8597 63.9957 40.436 64" fill="#144147"/>
</svg>
