<svg width="27" height="23" viewBox="0 0 27 23" fill="none" xmlns="http://www.w3.org/2000/svg">
<path d="M26.9999 16.5273C26.9881 15.2341 26.5816 13.9205 25.7955 12.8749C25.3059 12.2225 24.7096 11.6633 24.0273 11.2293V3.20213C24.0332 3.16427 24.0332 3.1264 24.0332 3.08854C24.0154 1.8769 23.0156 0.88954 21.7785 0.875H2.31404C1.67916 0.875 1.03832 1.10801 0.608183 1.57983C0.195806 2.03128 0 2.57886 0 3.18175V17.7097C0.0029667 18.5106 0.427209 19.2854 1.15111 19.6786C1.783 20.0194 2.47722 19.9611 3.16553 19.9611H15.1301C15.1835 20.0427 15.2428 20.1271 15.3022 20.2058C16.115 21.298 17.2098 22.1106 18.5152 22.5533C19.7374 22.9669 21.12 22.9844 22.3601 22.6291C24.7008 21.9562 26.5639 19.9378 26.914 17.5524C26.9614 17.2204 27 16.8942 27 16.5563V16.5505V16.5272L26.9999 16.5273ZM14.1777 15.7059C14.1035 16.3205 14.1065 16.9146 14.1955 17.5321C14.1985 17.5583 14.2044 17.5845 14.2074 17.6107C14.24 17.8146 14.2845 18.0156 14.3379 18.2166H3.83586C3.31372 18.2166 2.79157 18.2224 2.26943 18.2166C2.24273 18.2166 2.21899 18.2166 2.19229 18.2137C2.23679 18.2224 2.28129 18.2311 2.32876 18.2399C2.26349 18.2311 2.20119 18.2224 2.13592 18.2137C2.15372 18.2224 2.17449 18.2311 2.19526 18.2399C2.17449 18.2311 2.15076 18.2224 2.12999 18.2137C2.11813 18.2137 2.10329 18.2107 2.09142 18.2078C2.10329 18.2078 2.11219 18.2107 2.12406 18.2107L2.02022 18.1671C2.05582 18.1991 2.02022 18.1787 1.98165 18.1525C1.93419 18.1175 1.88375 18.0768 1.96385 18.1205C1.94902 18.1088 1.93419 18.0942 1.92232 18.0797C1.90748 18.0651 1.88968 18.0476 1.87485 18.0302C1.87782 18.036 1.88375 18.0447 1.88672 18.0505C1.92529 18.1146 1.88078 18.0622 1.84815 18.0185C1.81848 17.9806 1.79772 17.9515 1.83332 17.9865C1.81848 17.9515 1.80365 17.9166 1.78882 17.8816C1.78882 17.8933 1.79178 17.902 1.79178 17.9137C1.78882 17.902 1.78881 17.8874 1.78585 17.8758C1.77695 17.8554 1.76805 17.8321 1.75915 17.8117C1.76805 17.8321 1.77695 17.8496 1.78585 17.87C1.77991 17.8205 1.77398 17.7739 1.76508 17.7243C1.77102 17.7564 1.77695 17.7884 1.78585 17.8205C1.77695 17.6748 1.78288 17.5292 1.78288 17.3894V4.85067C1.78288 4.26812 1.77695 3.68856 1.78288 3.10602C1.78288 3.0798 1.78288 3.05359 1.78585 3.02737C1.77695 3.07106 1.76805 3.11475 1.75915 3.16135C1.76805 3.09728 1.77695 3.03611 1.78585 2.97203C1.77695 2.99242 1.76805 3.0099 1.75915 3.03029C1.76805 3.0099 1.77695 2.9866 1.78585 2.96621C1.78585 2.95456 1.78882 2.94 1.79178 2.92835C1.79178 2.94 1.78882 2.94874 1.78882 2.96039C1.80365 2.92544 1.81848 2.8934 1.83332 2.85844C1.80068 2.8934 1.82145 2.85844 1.84815 2.82058C1.88375 2.77398 1.92529 2.72446 1.88078 2.80311C1.89265 2.78854 1.90748 2.77398 1.92232 2.76233C1.93715 2.74777 1.95495 2.73029 1.97275 2.71573C1.96682 2.71864 1.95792 2.72447 1.95199 2.72738C1.88672 2.76524 1.94012 2.72155 1.98462 2.6866C2.02319 2.66039 2.05285 2.64 2.01725 2.67495L2.12406 2.63126C2.11219 2.63126 2.10032 2.63418 2.09142 2.63418C2.10329 2.63126 2.11813 2.63126 2.12999 2.62835C2.15076 2.61961 2.17449 2.61087 2.19526 2.60214C2.17449 2.61087 2.15669 2.61961 2.13592 2.62835C2.18636 2.62253 2.23382 2.6167 2.28426 2.60796C2.25163 2.61379 2.22196 2.61961 2.18932 2.62544C2.37623 2.61379 2.5661 2.62544 2.75302 2.62544H19.4231C20.2004 2.62544 20.9777 2.62252 21.755 2.62544C21.7846 2.62544 21.8113 2.62544 21.841 2.62835C21.7965 2.61961 21.752 2.61087 21.7045 2.60214C21.7698 2.61087 21.8321 2.61961 21.8974 2.62835C21.8766 2.61961 21.8588 2.61087 21.838 2.60214C21.8588 2.61087 21.8825 2.61961 21.9033 2.62835C21.9152 2.62835 21.93 2.63126 21.9419 2.63418C21.93 2.63418 21.9211 2.63126 21.9092 2.63126C21.9448 2.64583 21.9804 2.66039 22.0131 2.67495C21.9775 2.64291 22.0131 2.6633 22.0516 2.68951C22.0991 2.72447 22.1495 2.76524 22.0694 2.72155C22.0843 2.7332 22.0991 2.74777 22.111 2.76233C22.1258 2.77689 22.1436 2.79437 22.1584 2.81184C22.1555 2.80602 22.1495 2.79728 22.1466 2.79145C22.108 2.72738 22.1525 2.7798 22.1851 2.82349C22.2148 2.86136 22.2326 2.89048 22.2 2.85553C22.2148 2.8934 22.2296 2.92835 22.2474 2.96621C22.2504 2.97495 22.2563 2.98368 22.2593 2.99533C22.2593 3.00698 22.2563 3.01864 22.2563 3.02737C22.2593 3.0565 22.2652 3.08563 22.2682 3.11766C22.2652 3.09436 22.2593 3.07106 22.2534 3.04776V3.08854V10.4574C21.1023 10.1545 19.8859 10.1574 18.7438 10.4807H18.7408C18.6132 10.5186 18.4856 10.5623 18.361 10.6089C17.1595 11.0545 16.1538 11.7972 15.3765 12.8021C14.7179 13.6496 14.3174 14.6603 14.1779 15.7059L14.1777 15.7059ZM25.1842 17.1855C25.1219 17.5671 25.0181 17.9428 24.8757 18.301C24.7422 18.5923 24.5879 18.8748 24.4069 19.1428C24.3624 19.2097 24.315 19.2738 24.2645 19.3379C24.2734 19.3292 24.2823 19.3175 24.2942 19.3059C24.2823 19.3204 24.2705 19.335 24.2586 19.3496C24.2556 19.3525 24.2527 19.3583 24.2497 19.3612C24.2289 19.3903 24.1874 19.4369 24.1874 19.4369C24.0806 19.5593 23.9738 19.6787 23.8551 19.7894C23.7365 19.9059 23.6119 20.0165 23.4843 20.1243C23.4784 20.1301 23.4695 20.1389 23.4576 20.1505C23.4487 20.1563 23.4368 20.1651 23.419 20.1767C23.3449 20.2292 23.2707 20.2816 23.1965 20.3311C22.9295 20.5059 22.6507 20.6573 22.3569 20.7855C21.9772 20.9311 21.5856 21.0359 21.185 21.1C20.7608 21.1466 20.3306 21.1437 19.9034 21.0971C19.5148 21.0359 19.138 20.934 18.7701 20.7942C18.4853 20.6719 18.2124 20.5262 17.9513 20.3573C17.8801 20.3107 17.8118 20.2641 17.7406 20.2146C17.705 20.1913 17.6724 20.1651 17.6398 20.1389C17.6516 20.1476 17.6605 20.1534 17.6694 20.1593C17.5389 20.0515 17.4113 19.9437 17.2926 19.8272C17.171 19.7107 17.0553 19.5884 16.9455 19.4602L16.8743 19.3729C16.8328 19.3175 16.7913 19.2622 16.7527 19.2068C16.5569 18.9301 16.3908 18.636 16.2513 18.3243C16.106 17.9573 15.9962 17.5758 15.9339 17.1826C15.8864 16.7661 15.8834 16.3467 15.9339 15.9301C15.9962 15.5428 16.1 15.1641 16.2454 14.803C16.3789 14.5117 16.5332 14.2292 16.7141 13.9612C16.7586 13.8942 16.8061 13.8302 16.8565 13.7661C16.8476 13.7748 16.8387 13.7865 16.8269 13.7981C16.8387 13.7835 16.8506 13.769 16.8625 13.7544C16.8654 13.7515 16.8684 13.7457 16.8714 13.7428C16.8921 13.7136 16.9337 13.667 16.9337 13.667C17.0405 13.5447 17.1473 13.4253 17.2659 13.3146C17.3846 13.1981 17.5092 13.0874 17.6368 12.9797C17.6427 12.9738 17.6516 12.9651 17.6635 12.9535C17.6486 12.9622 17.6427 12.9651 17.6457 12.9622C17.6457 12.9622 17.6486 12.9593 17.6516 12.9564C17.6012 12.9884 17.6931 12.9069 17.7347 12.8865C17.7169 12.8952 17.6902 12.9185 17.6664 12.9389C17.6902 12.9214 17.7228 12.8952 17.7436 12.8865C17.7465 12.8865 17.7495 12.8835 17.7525 12.8835C17.8059 12.8457 17.8593 12.8078 17.9157 12.7729C18.1649 12.6098 18.423 12.47 18.6929 12.3476C18.6751 12.3535 18.6573 12.3622 18.6395 12.368C18.6603 12.3593 18.6811 12.3505 18.7018 12.3418C18.7196 12.3331 18.7374 12.3272 18.7552 12.3185C18.776 12.3098 18.7938 12.3039 18.8146 12.2952C18.8264 12.2894 18.8413 12.2836 18.8531 12.2806C18.8442 12.2836 18.8324 12.2894 18.8235 12.2923C19.1735 12.1641 19.5296 12.068 19.8974 12.0098C19.8737 12.0127 19.847 12.0156 19.8233 12.0185C19.8411 12.0156 19.8589 12.0127 19.8767 12.0127C19.8559 12.0156 19.8351 12.0185 19.8144 12.0185C19.8945 12.0069 19.9716 11.9981 20.0517 11.9865C20.0191 11.9923 19.9864 11.9952 19.9508 12.001C19.9864 11.9952 20.022 11.9923 20.0606 11.9865C20.022 11.9923 19.9805 11.9981 19.9419 12.0039C20.0725 11.9894 20.203 11.9806 20.3335 11.9777C20.3513 11.9777 20.3691 11.9777 20.384 11.9748C20.4136 11.9748 20.4403 11.9719 20.47 11.9719H20.648C20.6777 11.9719 20.7073 11.9719 20.737 11.9748C20.7548 11.9748 20.7696 11.9748 20.7874 11.9777C20.8112 11.9777 20.8319 11.9806 20.8557 11.9806H20.8586C20.9684 11.9865 21.0782 11.9952 21.185 12.0069C21.1642 12.0039 21.1434 12.001 21.1227 11.9981C21.1405 12.001 21.1583 12.0039 21.1761 12.0039C21.1405 11.9981 21.1049 11.9923 21.0693 11.9894C21.1494 12.001 21.2265 12.0098 21.3066 12.0214C21.2859 12.0185 21.2681 12.0156 21.2473 12.0156C21.2651 12.0185 21.2799 12.0185 21.2977 12.0214C21.2769 12.0185 21.2532 12.0156 21.2324 12.0127C21.5944 12.0709 21.9445 12.1641 22.2886 12.2894H22.2916C22.3153 12.2981 22.3361 12.3039 22.3569 12.3127C22.3776 12.3214 22.3984 12.3302 22.4192 12.3389C22.5349 12.3913 22.6506 12.4467 22.7633 12.5078C22.9324 12.5981 23.0956 12.6942 23.2528 12.7991C23.3121 12.837 23.3655 12.8777 23.4219 12.9156C23.4516 12.9389 23.4812 12.9622 23.5109 12.9884C23.6474 13.0991 23.775 13.2185 23.8996 13.3408C24.0182 13.4602 24.131 13.5826 24.2378 13.7136C24.2437 13.7195 24.2556 13.734 24.2674 13.7486C24.2734 13.7573 24.2793 13.7661 24.2823 13.769C24.3327 13.836 24.3802 13.9059 24.4276 13.9729C24.5997 14.2292 24.751 14.4971 24.8786 14.7768C25.021 15.1321 25.1248 15.499 25.1901 15.8748C25.2138 16.0991 25.2257 16.3233 25.2257 16.5476C25.2197 16.7631 25.2049 16.9728 25.1842 17.1855L25.1842 17.1855ZM22.6299 15.6768H21.4462V14.5117C21.4462 14.0545 21.0368 13.6176 20.5562 13.638C20.0726 13.6584 19.6661 14.0224 19.6661 14.5117V15.6768H18.4824C18.0167 15.6768 17.5717 16.0787 17.5924 16.5505C17.6132 17.0224 17.984 17.4243 18.4824 17.4243H19.6661V18.5835C19.6661 19.0408 20.0756 19.4777 20.5562 19.4573C21.0368 19.4369 21.4462 19.0758 21.4462 18.5835V17.4243H22.6299C23.0956 17.4243 23.5407 17.0224 23.5199 16.5505C23.4991 16.0758 23.1283 15.6768 22.6299 15.6768Z" fill="white"/>
<path d="M20.6558 6.05825C20.3205 6.25631 19.9882 6.45437 19.653 6.65241C18.1845 7.5233 16.7159 8.3912 15.2474 9.26209C14.3189 9.81257 13.3873 10.3631 12.4587 10.9135C12.1917 11.0708 11.8238 11.0766 11.5598 10.9135C11.2246 10.7067 10.8894 10.5029 10.5541 10.2961C9.07962 9.39316 7.60812 8.49026 6.13662 7.58737C5.21102 7.01941 4.28836 6.45439 3.36271 5.88639C2.94144 5.62717 2.81089 5.12037 3.04824 4.69222C3.26778 4.28154 3.87 4.13593 4.2646 4.37766C4.59985 4.58445 4.93507 4.78833 5.27032 4.99514C6.74481 5.89804 8.2163 6.80094 9.6878 7.70383C10.4651 8.1815 11.2424 8.65626 12.0196 9.13394C12.2006 9.02618 12.3816 8.91841 12.5655 8.81064C14.034 7.93975 15.5026 7.07185 16.9711 6.20096C17.8997 5.65048 18.8312 5.09999 19.7598 4.54951C20.184 4.29903 20.7181 4.47087 20.9762 4.86407C21.2372 5.26309 21.0533 5.82232 20.6558 6.05825Z" fill="white"/>
</svg>
