<svg width="103" height="84" viewBox="0 0 103 84" fill="none" xmlns="http://www.w3.org/2000/svg">
<path fillRule="evenodd" clipRule="evenodd" d="M50.3224 0.766153L1.47294 39.8753C1.23442 40.0692 1.0432 40.3102 0.912117 40.5817C0.78063 40.8528 0.712891 41.1484 0.712891 41.447C0.712891 41.7456 0.78063 42.0408 0.912117 42.3123C1.0432 42.5834 1.23442 42.8247 1.47294 43.0187L17.6711 55.9656C18.06 56.2695 18.5451 56.436 19.0502 56.436C19.5512 56.436 20.0403 56.2695 20.4292 55.9656L50.3224 32.0368C50.7153 31.7272 51.2044 31.5578 51.7135 31.5578C52.2226 31.5578 52.7117 31.7272 53.1045 32.0368L83.0018 55.9656C83.3907 56.2749 83.8838 56.4444 84.3889 56.4444C84.898 56.4444 85.391 56.2749 85.7799 55.9656L101.955 43.0187C102.192 42.8247 102.384 42.5834 102.516 42.3123C102.645 42.0408 102.713 41.7456 102.713 41.447C102.713 41.1484 102.645 40.8528 102.516 40.5817C102.384 40.3102 102.192 40.0692 101.955 39.8753L53.1045 0.766153C52.7117 0.45662 52.2226 0.287109 51.7135 0.287109C51.2044 0.287109 50.7153 0.45662 50.3224 0.766153Z" fill="#EB5E51"/>
<path fillRule="evenodd" clipRule="evenodd" d="M77.5285 83.7128H26.0355C25.4757 83.7072 24.9311 83.5297 24.4731 83.2038C24.0151 82.878 23.6639 82.4191 23.4756 81.8891C23.2822 81.3591 23.2568 80.7825 23.3993 80.2372C23.5418 79.6913 23.8471 79.2028 24.2746 78.836L24.5494 78.6145L26.8345 76.6751L35.1046 69.665L37.3947 67.698L43.4051 62.6272L49.9651 57.0859C50.4588 56.6715 51.0797 56.4443 51.726 56.4443C52.3724 56.4443 52.9932 56.6715 53.492 57.0859L60.052 62.6272L66.0624 67.698L68.3475 69.665L76.6175 76.6751L78.9026 78.6145L79.152 78.836C79.5794 79.2028 79.8848 79.6913 80.0273 80.2372C80.1698 80.7825 80.1443 81.3591 79.951 81.8891C79.7576 82.4191 79.4115 82.878 78.9535 83.2038C78.4954 83.5297 77.9509 83.7072 77.3911 83.7128" fill="white"/>
</svg>
